<svg version="1.1" xmlns="http://www.w3.org/2000/svg" xmlns:xlink="http://www.w3.org/1999/xlink" width="623.64061" height="769.38575" viewBox="0,0,623.64061,769.38575"><defs><linearGradient x1="239.0103" y1="-204.5054" x2="239.0103" y2="564.8806" gradientUnits="userSpaceOnUse" id="color-1"><stop offset="0" stop-color="#81c0fa"/><stop offset="1" stop-color="#31e07d"/></linearGradient><linearGradient x1="239.0103" y1="-193.2635" x2="239.0103" y2="552.7016" gradientUnits="userSpaceOnUse" id="color-2"><stop offset="0" stop-color="#81c0fa"/><stop offset="1" stop-color="#81c0fa"/></linearGradient></defs><g transform="translate(72.81692,204.50505)"><g data-paper-data="{&quot;isPaintingLayer&quot;:true}" fill="none" fill-rule="nonzero" stroke-linecap="butt" stroke-linejoin="miter" stroke-miterlimit="10" stroke-dasharray="" stroke-dashoffset="0" style="mix-blend-mode: normal"><g><path d="M503.82,233.19c-75.14,197.12 -224.63,296 -274.02,325.81c-46.16,-29.32 -217.46,-145.83 -277.36,-370.92c-29.66,-111.43 -21.24,-209.02 -9.34,-272.39c1.99,0.03 3.99,0.05 6,0.05c67.64,0 118.76,-18.19 146.63,-28.4c66.88,-24.51 117.11,-59.86 148.27,-85.34c29.7,25.16 78.6,60.76 144.93,85.33c25.54,9.46 77.7,28.4 146.63,28.4c1.49,0 2.96,0 4.44,-0.02c9.16,68.44 13.86,186.2 -36.18,317.48z" stroke="url(#color-1)" stroke-width="10"/><path d="M489.13,230.27c-70.97,186.18 -212.17,279.58 -258.82,307.73c-43.6,-27.7 -205.39,-137.74 -261.97,-350.34c-28.01,-105.24 -20.06,-197.42 -8.82,-257.28c1.88,0.03 3.77,0.05 5.67,0.05c63.89,0 112.17,-17.18 138.5,-26.83c63.17,-23.14 110.61,-56.52 140.04,-80.6c28.05,23.76 74.24,57.39 136.89,80.6c24.12,8.94 73.39,26.83 138.5,26.83c1.4,0 2.79,0 4.2,-0.02c8.64,64.64 13.07,175.86 -34.19,299.86z" stroke="url(#color-2)" stroke-width="25" opacity="0.08"/></g></g></g></svg>